<?xml version="1.0" encoding="UTF-8" standalone="no"?>
<svg
   xmlns:dc="http://purl.org/dc/elements/1.1/"
   xmlns:cc="http://creativecommons.org/ns#"
   xmlns:rdf="http://www.w3.org/1999/02/22-rdf-syntax-ns#"
   xmlns:svg="http://www.w3.org/2000/svg"
   xmlns="http://www.w3.org/2000/svg"
   viewBox="0 0 467.02665 158.65762"
   height="158.65762"
   width="467.02664"
   xml:space="preserve"
   id="svg5946"
   version="1.1"><metadata
     id="metadata5952"><rdf:RDF><cc:Work
         rdf:about=""><dc:format>image/svg+xml</dc:format><dc:type
           rdf:resource="http://purl.org/dc/dcmitype/StillImage" /><dc:title></dc:title></cc:Work></rdf:RDF></metadata><defs
     id="defs5950"><clipPath
       id="clipPath5962"
       clipPathUnits="userSpaceOnUse"><path
         id="path5960"
         d="M 0,158.331 H 390.336 V 0 H 0 Z" /></clipPath></defs><g
     transform="matrix(1.3333333,0,0,-1.3333333,-27.394933,184.52523)"
     id="g5954"><g
       id="g5956"><g
         clip-path="url(#clipPath5962)"
         id="g5958"><path
           id="path5964"
           style="fill:#0551a0;fill-opacity:1;fill-rule:nonzero;stroke:none"
           d="m 39.835,62.75 h 1.59 V 42.925 h -1.59 z m 0.795,6.858 c 0.711,0 1.256,-0.543 1.256,-1.254 0,-0.711 -0.545,-1.254 -1.256,-1.254 -0.711,0 -1.254,0.543 -1.254,1.254 0,0.711 0.543,1.254 1.254,1.254" /><g
           transform="translate(48.9526,35.8984)"
           id="g5966"><path
             id="path5968"
             style="fill:#0551a0;fill-opacity:1;fill-rule:nonzero;stroke:none"
             d="m 0,0 c 1.506,-0.586 3.346,-1.004 5.019,-1.004 5.353,0 8.574,2.426 8.574,9.368 v 8.574 c 0,4.601 -3.304,8.826 -8.072,8.826 -4.015,0 -7.989,-3.723 -7.989,-8.826 0,-5.102 3.974,-8.824 7.989,-8.824 2.634,0 4.475,1.087 6.19,2.886 V 9.117 C 10.498,8.114 8.574,6.608 5.521,6.608 c -5.396,0 -9.662,4.35 -9.662,10.33 0,5.982 4.266,10.332 9.662,10.332 5.395,0 9.661,-4.35 9.661,-10.332 V 7.277 c 0,-6.19 -4.182,-9.787 -9.954,-9.787 -1.966,0 -3.89,0.335 -5.73,1.004 z" /></g><g
           transform="translate(83.6636,42.9248)"
           id="g5970"><path
             id="path5972"
             style="fill:#0551a0;fill-opacity:1;fill-rule:nonzero;stroke:none"
             d="m 0,0 v 11.878 c 0,4.141 -2.887,6.859 -6.357,6.859 -3.472,0 -6.358,-2.718 -6.358,-6.859 V 0 h -1.59 v 29.277 h 1.59 V 17.148 h 0.084 c 1.379,1.965 3.68,3.095 6.274,3.095 4.433,0 7.946,-3.263 7.946,-8.156 L 1.589,0 Z" /></g><g
           transform="translate(91.021,62.75)"
           id="g5974"><path
             id="path5976"
             style="fill:#0551a0;fill-opacity:1;fill-rule:nonzero;stroke:none"
             d="M 0,0 H 7.027 V -1.506 H 0 v -12.799 c 0,-2.508 1.506,-4.014 3.848,-4.014 h 3.179 v -1.506 H 4.183 c -3.765,0 -5.773,2.175 -5.773,5.688 V 5.437 H 0 Z" /></g><g
           transform="translate(115.0679,62.75)"
           id="g5978"><path
             id="path5980"
             style="fill:#0551a0;fill-opacity:1;fill-rule:nonzero;stroke:none"
             d="m 0,0 v -13.134 c 0,-3.763 2.552,-5.603 5.145,-5.603 2.551,0 5.144,1.84 5.144,5.603 V 0 h 1.59 v -13.134 c 0,-4.6 -3.012,-7.109 -6.734,-7.109 -3.137,0 -5.061,1.422 -5.897,3.889 h -0.084 c -0.836,-2.467 -2.76,-3.889 -5.896,-3.889 -3.723,0 -6.735,2.509 -6.735,7.109 V 0 h 1.59 v -13.134 c 0,-3.763 2.593,-5.603 5.145,-5.603 2.591,0 5.143,1.84 5.143,5.603 V 0 Z" /></g><g
           transform="translate(134.0522,50.0352)"
           id="g5982"><path
             id="path5984"
             style="fill:#0551a0;fill-opacity:1;fill-rule:nonzero;stroke:none"
             d="m 0,0 12.756,8.615 c -1.463,1.841 -3.764,3.012 -6.399,3.012 -5.06,0 -8.616,-4.225 -8.616,-8.95 0,-4.685 3.681,-8.699 8.616,-8.699 4.81,0 8.616,3.889 8.7,8.406 h 1.672 c -0.125,-5.27 -4.432,-9.912 -10.038,-9.912 -6.189,0 -10.623,4.474 -10.623,10.288 0,5.604 4.183,10.373 10.289,10.373 3.806,0 7.027,-1.966 8.825,-4.852 L 1.004,-1.339 Z" /></g><path
           id="path5986"
           style="fill:#0551a0;fill-opacity:1;fill-rule:nonzero;stroke:none"
           d="m 154.375,62.75 h 1.59 V 42.925 h -1.59 z m 0.794,6.858 c 0.711,0 1.256,-0.543 1.256,-1.254 0,-0.711 -0.545,-1.254 -1.256,-1.254 -0.711,0 -1.253,0.543 -1.253,1.254 0,0.711 0.542,1.254 1.253,1.254" /><g
           transform="translate(164.3276,35.8984)"
           id="g5988"><path
             id="path5990"
             style="fill:#0551a0;fill-opacity:1;fill-rule:nonzero;stroke:none"
             d="m 0,0 c 1.506,-0.586 3.346,-1.004 5.02,-1.004 5.353,0 8.574,2.426 8.574,9.368 v 8.574 c 0,4.601 -3.305,8.826 -8.073,8.826 -4.015,0 -7.988,-3.723 -7.988,-8.826 0,-5.102 3.973,-8.824 7.988,-8.824 2.635,0 4.475,1.087 6.19,2.886 V 9.117 C 10.498,8.114 8.574,6.608 5.521,6.608 c -5.396,0 -9.662,4.35 -9.662,10.33 0,5.982 4.266,10.332 9.662,10.332 5.395,0 9.662,-4.35 9.662,-10.332 V 7.277 c 0,-6.19 -4.183,-9.787 -9.954,-9.787 -1.967,0 -3.891,0.335 -5.731,1.004 z" /></g><g
           transform="translate(198.6206,42.9248)"
           id="g5992"><path
             id="path5994"
             style="fill:#0551a0;fill-opacity:1;fill-rule:nonzero;stroke:none"
             d="m 0,0 v 11.878 c 0,4.141 -2.886,6.859 -6.357,6.859 -3.471,0 -6.358,-2.718 -6.358,-6.859 V 0 h -1.59 v 29.277 h 1.59 V 17.148 h 0.084 c 1.38,1.965 3.68,3.095 6.274,3.095 4.433,0 7.947,-3.263 7.947,-8.156 L 1.59,0 Z" /></g><g
           transform="translate(205.978,62.75)"
           id="g5996"><path
             id="path5998"
             style="fill:#0551a0;fill-opacity:1;fill-rule:nonzero;stroke:none"
             d="M 0,0 H 7.027 V -1.506 H 0 v -12.799 c 0,-2.508 1.506,-4.014 3.849,-4.014 h 3.178 v -1.506 H 4.184 c -3.765,0 -5.773,2.175 -5.773,5.688 V 5.437 H 0 Z" /></g><g
           transform="translate(22.3022,72.4541)"
           id="g6000"><path
             id="path6002"
             style="fill:#0551a0;fill-opacity:1;fill-rule:nonzero;stroke:none"
             d="m 0,0 v -20.578 c 0,-4.098 2.51,-7.193 6.357,-7.193 h 8.065 v -1.506 H 5.771 c -3.595,0 -7.527,2.927 -7.527,8.617 V 0 Z" /></g><g
           transform="translate(216.978,42.9824)"
           id="g6004"><path
             id="path6006"
             style="fill:#0551a0;fill-opacity:1;fill-rule:nonzero;stroke:none"
             d="m 0,0 3.639,26.768 c 0.25,1.757 0.627,3.011 2.175,3.011 1.588,0 1.924,-0.334 2.844,-3.513 L 15.684,2.469 c 0.168,-0.502 0.377,-0.963 0.586,-0.963 0.209,0 0.334,0.461 0.501,0.963 l 7.028,23.797 c 0.92,3.179 1.254,3.513 2.844,3.513 1.546,0 1.923,-1.254 2.173,-3.011 L 32.455,0 h -1.756 l -3.638,26.894 c -0.084,0.752 -0.252,1.212 -0.586,1.212 -0.377,0 -0.543,-0.46 -0.752,-1.212 L 18.695,2.887 C 17.9,0.125 17.65,-0.334 16.229,-0.334 c -1.422,0 -1.674,0.459 -2.469,3.221 L 6.734,26.894 c -0.209,0.752 -0.377,1.212 -0.754,1.212 -0.334,0 -0.501,-0.46 -0.585,-1.212 L 1.756,0 Z" /></g><g
           transform="translate(272.6831,42.9824)"
           id="g6008"><path
             id="path6010"
             style="fill:#90d2c3;fill-opacity:1;fill-rule:nonzero;stroke:none"
             d="m 0,0 h -17.064 c -1.213,0 -1.84,0.879 -1.84,2.133 0,3.472 16.98,10.834 16.98,18.193 0,4.686 -2.594,7.78 -7.613,7.78 -5.018,0 -7.611,-3.094 -7.611,-7.612 0,-3.43 3.261,-7.318 7.654,-6.607 L -9.41,13.76 c -0.629,-0.459 -1.633,-1.213 -2.26,-1.213 -2.383,0 -7.318,2.678 -7.318,8.031 0,5.604 3.345,9.201 9.451,9.201 4.851,0 9.453,-2.425 9.453,-9.453 0,-8.029 -16.98,-16.226 -16.98,-18.275 0,-0.168 0.209,-0.377 0.502,-0.377 L 0,1.674 Z" /></g><g
           transform="translate(277.1538,42.9824)"
           id="g6012"><path
             id="path6014"
             style="fill:#0551a0;fill-opacity:1;fill-rule:nonzero;stroke:none"
             d="m 0,0 3.639,26.768 c 0.252,1.757 0.627,3.011 2.175,3.011 1.59,0 1.924,-0.334 2.844,-3.513 L 15.684,2.469 c 0.168,-0.502 0.377,-0.963 0.586,-0.963 0.209,0 0.335,0.461 0.501,0.963 l 7.028,23.797 c 0.92,3.179 1.254,3.513 2.844,3.513 1.546,0 1.923,-1.254 2.175,-3.011 L 32.457,0 h -1.758 l -3.638,26.894 c -0.084,0.752 -0.25,1.212 -0.586,1.212 -0.375,0 -0.543,-0.46 -0.752,-1.212 L 18.695,2.887 C 17.9,0.125 17.65,-0.334 16.229,-0.334 c -1.422,0 -1.674,0.459 -2.469,3.221 L 6.734,26.894 c -0.209,0.752 -0.377,1.212 -0.754,1.212 -0.334,0 -0.501,-0.46 -0.584,-1.212 L 1.758,0 Z" /></g><g
           transform="translate(302.8765,88.126)"
           id="g6016"><path
             id="path6018"
             style="fill:#0551a0;fill-opacity:1;fill-rule:nonzero;stroke:none"
             d="m 0,0 c 0,7.043 5.709,12.752 12.752,12.752 7.041,0 12.75,-5.709 12.75,-12.752 0,-7.042 -5.709,-12.751 -12.75,-12.751 C 5.709,-12.751 0,-7.042 0,0" /></g><g
           transform="translate(299.2554,79.916)"
           id="g6020"><path
             id="path6022"
             style="fill:none;stroke:#90d2c3;stroke-width:1.25;stroke-linecap:butt;stroke-linejoin:miter;stroke-miterlimit:10;stroke-dasharray:none;stroke-opacity:1"
             d="m 0,0 c -1.242,2.47 -1.939,5.259 -1.939,8.21 0,10.113 8.197,18.313 18.312,18.313 10.113,0 18.311,-8.2 18.311,-18.313 0,-10.112 -8.198,-18.313 -18.311,-18.313" /></g><g
           transform="translate(322.4956,88.833)"
           id="g6024"><path
             id="path6026"
             style="fill:#ffffff;fill-opacity:1;fill-rule:nonzero;stroke:none"
             d="m 0,0 c 0.062,0.271 0.096,0.551 0.096,0.839 0,2.05 -1.662,3.713 -3.711,3.713 -0.553,0 -1.078,-0.122 -1.547,-0.339 -0.84,1.256 -2.272,2.083 -3.895,2.083 -2.55,0 -4.627,-2.043 -4.677,-4.583 -1.393,-0.588 -2.373,-1.965 -2.373,-3.574 0,-2.142 1.736,-3.878 3.877,-3.878 h 12.123 c 1.586,0 2.871,1.285 2.871,2.871 C 2.764,-1.318 1.537,-0.056 0,0" /></g><g
           transform="translate(334.105,88.54)"
           id="g6028"><path
             id="path6030"
             style="fill:none;stroke:#90d2c3;stroke-width:1.25;stroke-linecap:butt;stroke-linejoin:miter;stroke-miterlimit:10;stroke-dasharray:none;stroke-opacity:1"
             d="M 0,0 H 12.672" /></g><g
           transform="translate(346.4312,88.8037)"
           id="g6032"><path
             id="path6034"
             style="fill:none;stroke:#90d2c3;stroke-width:1.25;stroke-linecap:butt;stroke-linejoin:miter;stroke-miterlimit:10;stroke-dasharray:none;stroke-opacity:1"
             d="M 0,0 C 0,6.562 5.32,11.88 11.881,11.88 18.441,11.88 23.76,6.562 23.76,0 23.76,-6.561 18.441,-11.88 11.881,-11.88 5.32,-11.88 0,-6.561 0,0 Z" /></g><g
           transform="translate(348.8081,88.8037)"
           id="g6036"><path
             id="path6038"
             style="fill:#0551a0;fill-opacity:1;fill-rule:nonzero;stroke:none"
             d="m 0,0 c 0,5.249 4.254,9.504 9.504,9.504 5.248,0 9.504,-4.255 9.504,-9.504 0,-5.249 -4.256,-9.504 -9.504,-9.504 C 4.254,-9.504 0,-5.249 0,0" /></g><g
           transform="translate(359.564,84.6133)"
           id="g6040"><path
             id="path6042"
             style="fill:#90d2c3;fill-opacity:1;fill-rule:nonzero;stroke:none"
             d="M 0,0 H -2.813 C -3.08,0 -3.281,-0.216 -3.281,-0.467 V -0.95 c 0,-0.384 0.285,-0.699 0.65,-0.749 l 0.117,-0.433 c 0.049,-0.232 0.266,-0.399 0.518,-0.399 h 1.166 c 0.234,0 0.449,0.167 0.516,0.399 l 0.117,0.433 c 0.369,0.05 0.65,0.365 0.65,0.749 v 0.483 C 0.453,-0.22 0.252,-0.019 0,0" /></g><g
           transform="translate(358.1323,94.9688)"
           id="g6044"><path
             id="path6046"
             style="fill:#90d2c3;fill-opacity:1;fill-rule:nonzero;stroke:none"
             d="m 0,0 h -0.031 c -2.317,-0.016 -4.188,-1.926 -4.17,-4.256 0.019,-1.067 0.437,-2.083 1.181,-2.866 0.424,-0.439 0.709,-1.012 0.803,-1.617 0.078,-0.532 0.531,-0.919 1.074,-0.919 h 0.725 v 0.931 2.706 l -0.967,0.966 c -0.17,0.17 -0.17,0.447 0,0.618 0.17,0.17 0.446,0.17 0.619,0 l 0.782,-0.783 0.783,0.783 c 0.17,0.17 0.447,0.17 0.619,0 0.17,-0.169 0.17,-0.446 0,-0.618 L 0.453,-6.021 v -2.706 -0.931 h 0.725 c 0.529,0 0.992,0.394 1.076,0.919 0.094,0.616 0.373,1.174 0.801,1.615 0.75,0.77 1.181,1.834 1.181,2.92 C 4.236,-1.887 2.336,0 0,0" /></g><g
           transform="translate(323.2065,71.0225)"
           id="g6048"><path
             id="path6050"
             style="fill:none;stroke:#90d2c3;stroke-width:1.25;stroke-linecap:butt;stroke-linejoin:miter;stroke-miterlimit:10;stroke-dasharray:none;stroke-opacity:1"
             d="M 0,0 6.098,-11.107" /></g><g
           transform="translate(329.3706,60.3447)"
           id="g6052"><path
             id="path6054"
             style="fill:none;stroke:#90d2c3;stroke-width:1.25;stroke-linecap:butt;stroke-linejoin:miter;stroke-miterlimit:10;stroke-dasharray:none;stroke-opacity:1"
             d="M 0,0 C 5.75,3.157 12.971,1.054 16.129,-4.697 19.285,-10.45 17.184,-17.671 11.432,-20.828 5.68,-23.985 -1.541,-21.883 -4.699,-16.13 -7.855,-10.379 -5.754,-3.157 0,0 Z" /></g><g
           transform="translate(330.5132,58.2627)"
           id="g6056"><path
             id="path6058"
             style="fill:#0551a0;fill-opacity:1;fill-rule:nonzero;stroke:none"
             d="M 0,0 C 4.602,2.524 10.379,0.843 12.904,-3.759 15.43,-8.36 13.748,-14.138 9.145,-16.663 4.545,-19.189 -1.232,-17.507 -3.758,-12.906 -6.285,-8.304 -4.602,-2.526 0,0" /></g><g
           transform="translate(323.2065,104.7979)"
           id="g6060"><path
             id="path6062"
             style="fill:none;stroke:#90d2c3;stroke-width:1.25;stroke-linecap:butt;stroke-linejoin:miter;stroke-miterlimit:10;stroke-dasharray:none;stroke-opacity:1"
             d="M 0,0 6.098,11.107" /></g><g
           transform="translate(329.3706,115.4756)"
           id="g6064"><path
             id="path6066"
             style="fill:none;stroke:#90d2c3;stroke-width:1.25;stroke-linecap:butt;stroke-linejoin:miter;stroke-miterlimit:10;stroke-dasharray:none;stroke-opacity:1"
             d="M 0,0 C 5.75,-3.157 12.971,-1.054 16.129,4.697 19.285,10.45 17.184,17.671 11.432,20.828 5.68,23.985 -1.541,21.883 -4.699,16.13 -7.855,10.379 -5.754,3.157 0,0 Z" /></g><g
           transform="translate(330.5132,117.5576)"
           id="g6068"><path
             id="path6070"
             style="fill:#0551a0;fill-opacity:1;fill-rule:nonzero;stroke:none"
             d="M 0,0 C 4.602,-2.524 10.379,-0.843 12.904,3.759 15.43,8.36 13.748,14.138 9.145,16.663 4.545,19.189 -1.232,17.507 -3.758,12.906 -6.285,8.304 -4.602,2.526 0,0" /></g><g
           transform="translate(300.8901,98.5166)"
           id="g6072"><path
             id="path6074"
             style="fill:none;stroke:#90d2c3;stroke-width:1.25;stroke-linecap:butt;stroke-linejoin:miter;stroke-miterlimit:10;stroke-dasharray:none;stroke-opacity:1"
             d="M 0,0 -10.518,7.069" /></g><g
           transform="translate(340.23,45.7373)"
           id="g6076"><path
             id="path6078"
             style="fill:#90d2c3;fill-opacity:1;fill-rule:nonzero;stroke:none"
             d="M 0,0 V 0.718 H -1.824 V 0 C -1.82,-1.271 0,-1.286 0,0" /></g><g
           transform="translate(331.8687,45.7373)"
           id="g6080"><path
             id="path6082"
             style="fill:#90d2c3;fill-opacity:1;fill-rule:nonzero;stroke:none"
             d="M 0,0 V 0.718 H -1.818 V 0 C -1.82,-1.286 0,-1.271 0,0" /></g><g
           transform="translate(339.1089,48.9863)"
           id="g6084"><path
             id="path6086"
             style="fill:#90d2c3;fill-opacity:1;fill-rule:nonzero;stroke:none"
             d="m 0,0 h -0.006 c -0.467,0 -0.842,0.386 -0.844,0.862 0.002,0.478 0.375,0.864 0.84,0.864 H 0.006 C 0.461,1.726 0.834,1.34 0.838,0.862 0.834,0.386 0.459,0 0,0 m -3.967,2.897 h -3.119 c -0.273,0 -0.461,0.281 -0.351,0.533 l 0.523,1.238 c 0.078,0.195 0.23,0.492 0.56,0.497 h 4.758 C -1.268,5.16 -1.186,4.977 -1.033,4.668 L -0.51,3.43 C -0.402,3.178 -0.588,2.897 -0.861,2.897 Z M -7.994,0.062 H -8 c -0.463,0 -0.836,0.386 -0.836,0.863 -0.002,0.477 0.371,0.864 0.832,0.864 h 0.016 c 0.459,0 0.832,-0.387 0.83,-0.864 C -7.156,0.448 -7.531,0.062 -7.994,0.062 M 2.09,-1.036 V 1.482 C 2.088,2.359 1.389,2.823 0.99,2.874 L -0.002,5.438 C -0.189,5.93 -0.596,6.347 -1.363,6.351 H -6.582 C -7.346,6.347 -7.752,5.93 -7.941,5.438 L -8.936,2.874 C -9.33,2.823 -10.027,2.359 -10.025,1.482 v -2.518 c 0,-0.413 0.334,-0.748 0.746,-0.748 H 1.342 c 0.412,0 0.748,0.334 0.748,0.748" /></g><g
           transform="translate(297.9175,79.9668)"
           id="g6088"><path
             id="path6090"
             style="fill:#90d2c3;fill-opacity:1;fill-rule:nonzero;stroke:none"
             d="M 0,0 C 0,0.695 0.566,1.262 1.262,1.262 1.959,1.262 2.521,0.695 2.521,0 2.521,-0.695 1.959,-1.262 1.262,-1.262 0.566,-1.262 0,-0.695 0,0" /></g><g
           transform="translate(313.6479,69.7334)"
           id="g6092"><path
             id="path6094"
             style="fill:#90d2c3;fill-opacity:1;fill-rule:nonzero;stroke:none"
             d="M 0,0 C 0,0.695 0.566,1.262 1.262,1.262 1.959,1.262 2.521,0.695 2.521,0 2.521,-0.695 1.959,-1.262 1.262,-1.262 0.566,-1.262 0,-0.695 0,0" /></g><g
           transform="translate(338.3647,122.3818)"
           id="g6096"><path
             id="path6098"
             style="fill:#90d2c3;fill-opacity:1;fill-rule:nonzero;stroke:none"
             d="m 0,0 -6.705,-0.006 -0.01,8.333 6.707,0.007 z m -3.35,-2.34 c -0.375,0 -0.683,0.307 -0.683,0.68 -0.002,0.377 0.306,0.683 0.681,0.682 0.373,0.002 0.682,-0.304 0.682,-0.681 0.002,-0.373 -0.307,-0.681 -0.68,-0.681 m -1.535,11.82 3.049,0.004 c 0.076,0 0.139,-0.115 0.139,-0.255 0,-0.143 -0.061,-0.258 -0.139,-0.258 L -4.885,8.967 c -0.078,10e-4 -0.136,0.116 -0.136,0.26 0,0.139 0.058,0.253 0.136,0.253 m 4.61,0.658 -6.174,-0.006 C -7.039,10.131 -7.516,9.65 -7.516,9.062 l 0.012,-11.394 c 0,-0.589 0.479,-1.066 1.068,-1.066 l 6.172,0.005 c 0.592,10e-4 1.069,0.479 1.067,1.068 L 0.793,9.068 c 0,0.59 -0.479,1.069 -1.068,1.07" /></g><g
           transform="translate(292.6187,112.0332)"
           id="g6100"><path
             id="path6102"
             style="fill:none;stroke:#90d2c3;stroke-width:1.26600003;stroke-linecap:butt;stroke-linejoin:miter;stroke-miterlimit:10;stroke-dasharray:none;stroke-opacity:1"
             d="m 0,0 c 0,-6.646 -5.389,-12.034 -12.035,-12.034 -6.647,0 -12.033,5.388 -12.033,12.034 0,6.646 5.386,12.035 12.033,12.035 C -5.389,12.035 0,6.646 0,0 Z" /></g><g
           transform="translate(290.2124,112.0332)"
           id="g6104"><path
             id="path6106"
             style="fill:#0551a0;fill-opacity:1;fill-rule:nonzero;stroke:none"
             d="m 0,0 c 0,-5.318 -4.311,-9.627 -9.629,-9.627 -5.318,0 -9.627,4.309 -9.627,9.627 0,5.316 4.309,9.628 9.627,9.628 C -4.311,9.628 0,5.316 0,0" /></g><g
           transform="translate(285.1011,116.0674)"
           id="g6108"><path
             id="path6110"
             style="fill:#90d2c3;fill-opacity:1;fill-rule:nonzero;stroke:none"
             d="m 0,0 c -0.516,0.286 -1.107,0.449 -1.74,0.449 -1.115,0 -2.115,-0.506 -2.776,-1.304 -0.662,0.798 -1.66,1.304 -2.775,1.304 -0.635,0 -1.227,-0.163 -1.744,-0.449 -1.111,-0.615 -1.863,-1.798 -1.863,-3.155 0,-0.392 0.064,-0.762 0.177,-1.113 0.049,-0.224 0.135,-0.452 0.242,-0.68 h 2.329 l 0.584,0.973 c 0.086,0.147 0.238,0.236 0.406,0.24 0.152,0.01 0.326,-0.082 0.416,-0.221 l 0.84,-1.299 1.039,2.8 c 0.068,0.191 0.252,0.315 0.451,0.315 h 0.004 c 0.199,0 0.383,-0.124 0.453,-0.313 l 0.928,-2.495 h 1.597 c 0.268,0 0.485,-0.218 0.485,-0.486 0,-0.266 -0.217,-0.484 -0.485,-0.484 h -1.931 c -0.203,0 -0.383,0.128 -0.451,0.315 l -0.596,1.59 -0.916,-2.482 c -0.067,-0.173 -0.221,-0.293 -0.401,-0.313 -0.019,-0.004 -0.035,-0.004 -0.052,-0.004 -0.162,0 -0.317,0.084 -0.408,0.22 l -0.946,1.457 -0.326,-0.546 c -0.088,-0.145 -0.246,-0.237 -0.416,-0.237 h -2.018 c 1.725,-2.347 5.377,-4.641 5.377,-4.641 0,0 5.584,3.509 6.203,6.291 0.116,0.351 0.178,0.721 0.178,1.113 C 1.865,-1.798 1.113,-0.615 0,0" /></g><g
           transform="translate(203.1226,27.4756)"
           id="g6112"><path
             id="path6114"
             style="fill:#4e4e50;fill-opacity:1;fill-rule:nonzero;stroke:none"
             d="M 0,0 C -0.875,0.244 -1.63,0.454 -1.625,0.884 -1.612,1.25 -1.5,1.413 -0.866,1.413 H 2.7 v 1.553 h -3.334 c -1.72,0 -2.668,-0.76 -2.668,-2.141 0,-1.584 1.658,-2.059 2.99,-2.44 0.916,-0.263 1.708,-0.489 1.708,-0.97 0,-0.306 -0.092,-0.588 -0.759,-0.588 h -3.939 v -1.553 h 3.939 c 1.525,0 2.435,0.824 2.435,2.202 C 3.072,-0.856 1.369,-0.382 0,0" /></g><g
           transform="translate(210.8433,30.5957)"
           id="g6116"><path
             id="path6118"
             style="fill:#4e4e50;fill-opacity:1;fill-rule:nonzero;stroke:none"
             d="m 0,0 c -2.282,0 -3.877,-1.734 -3.877,-4.217 v -6.978 h 1.614 v 6.73 c 0,2.148 1.169,2.912 2.263,2.912 1.387,0 2.355,-1.012 2.355,-2.463 0,-1.478 -0.912,-2.433 -2.324,-2.433 -0.615,0 -1.349,0.316 -1.804,0.63 l -0.197,0.135 v -1.738 l 0.064,-0.036 c 0.633,-0.361 1.363,-0.544 2.17,-0.544 2.044,0 3.706,1.712 3.706,3.816 C 3.97,-1.721 2.337,0 0,0" /></g><g
           transform="translate(221.8657,26.373)"
           id="g6120"><path
             id="path6122"
             style="fill:#4e4e50;fill-opacity:1;fill-rule:nonzero;stroke:none"
             d="m 0,0 c -0.319,-1.561 -1.029,-2.227 -2.374,-2.227 -1.359,0 -2.309,1.007 -2.309,2.45 0,1.44 0.95,2.447 2.309,2.447 0.717,0 1.076,-0.182 1.482,-0.561 L -4.524,0.088 -3.852,-1.221 1.387,1.69 1.335,1.797 c -0.768,1.587 -2.05,2.426 -3.709,2.426 -2.234,0 -3.985,-1.757 -3.985,-4 0,-2.244 1.751,-4.002 3.985,-4.002 2.155,0 3.837,1.502 4.001,3.572 l 0.009,0.119 -1.614,0.201 z" /></g><g
           transform="translate(224.4038,26.5957)"
           id="g6124"><path
             id="path6126"
             style="fill:#4e4e50;fill-opacity:1;fill-rule:nonzero;stroke:none"
             d="m 0,0 c 0,-2.407 1.963,-3.846 3.861,-3.846 h 1.427 v 1.553 H 4.109 C 2.9,-2.293 1.676,-1.505 1.676,0 1.676,1.505 2.9,2.293 4.109,2.293 H 5.288 V 3.846 H 3.861 C 1.963,3.846 0,2.407 0,0" /></g><g
           transform="translate(232.1235,32.9219)"
           id="g6128"><path
             id="path6130"
             style="fill:#4e4e50;fill-opacity:1;fill-rule:nonzero;stroke:none"
             d="m 0,0 c -0.614,0 -0.946,-0.488 -0.946,-0.947 0,-0.459 0.332,-0.948 0.946,-0.948 0.615,0 0.947,0.489 0.947,0.948 C 0.947,-0.488 0.615,0 0,0" /></g><path
           id="path6132"
           style="fill:#4e4e50;fill-opacity:1;fill-rule:nonzero;stroke:none"
           d="m 231.317,22.75 h 1.614 v 7.691 h -1.614 z" /><path
           id="path6134"
           style="fill:#4e4e50;fill-opacity:1;fill-rule:nonzero;stroke:none"
           d="m 239.657,22.75 h 1.614 v 7.691 h -1.614 z" /><g
           transform="translate(235.0366,31.0137)"
           id="g6136"><path
             id="path6138"
             style="fill:#4e4e50;fill-opacity:1;fill-rule:nonzero;stroke:none"
             d="m 0,0 v -8.264 h 1.614 v 6.139 h 2.233 v 1.553 H 1.614 v 0.603 c 0,0.832 0.449,1.254 1.332,1.254 H 4.033 V 2.838 H 2.761 C 1.109,2.838 0,1.697 0,0" /></g><g
           transform="translate(240.4634,32.9219)"
           id="g6140"><path
             id="path6142"
             style="fill:#4e4e50;fill-opacity:1;fill-rule:nonzero;stroke:none"
             d="m 0,0 c -0.614,0 -0.946,-0.488 -0.946,-0.947 0,-0.459 0.332,-0.948 0.946,-0.948 0.615,0 0.947,0.489 0.947,0.948 C 0.947,-0.488 0.615,0 0,0" /></g><g
           transform="translate(248.8823,26.373)"
           id="g6144"><path
             id="path6146"
             style="fill:#4e4e50;fill-opacity:1;fill-rule:nonzero;stroke:none"
             d="m 0,0 c -0.319,-1.561 -1.029,-2.227 -2.374,-2.227 -1.359,0 -2.31,1.007 -2.31,2.45 0,1.44 0.951,2.447 2.31,2.447 0.717,0 1.076,-0.182 1.481,-0.561 L -4.524,0.088 -3.853,-1.221 1.387,1.69 1.335,1.797 c -0.779,1.609 -2.027,2.426 -3.709,2.426 -2.234,0 -3.985,-1.757 -3.985,-4 0,-2.244 1.751,-4.002 3.985,-4.002 2.155,0 3.837,1.502 4.001,3.572 l 0.009,0.119 -1.614,0.201 z" /></g><g
           transform="translate(257.3892,27.0605)"
           id="g6148"><path
             id="path6150"
             style="fill:#4e4e50;fill-opacity:1;fill-rule:nonzero;stroke:none"
             d="m 0,0 c 0,-2.148 -1.169,-2.914 -2.263,-2.914 -1.386,0 -2.355,1.014 -2.355,2.465 0,1.477 0.912,2.431 2.324,2.431 0.617,0 1.352,-0.315 1.805,-0.628 l 0.196,-0.135 v 1.736 l -0.062,0.036 c -0.631,0.362 -1.361,0.544 -2.171,0.544 -2.044,0 -3.706,-1.711 -3.706,-3.814 0,-2.466 1.632,-4.188 3.969,-4.188 2.283,0 3.877,1.735 3.877,4.219 V 6.791 H 0 Z" /></g><g
           transform="translate(268.2085,30.5957)"
           id="g6152"><path
             id="path6154"
             style="fill:#4e4e50;fill-opacity:1;fill-rule:nonzero;stroke:none"
             d="m 0,0 c -2.337,0 -3.97,-1.613 -3.97,-3.924 0,-2.325 1.626,-4.078 3.783,-4.078 1.015,0 1.568,0.35 2.091,0.739 l 0.05,0.038 V -5.19 L 1.73,-5.474 c -0.35,-0.445 -0.943,-0.975 -1.777,-0.975 -1.295,0 -2.308,1.062 -2.308,2.418 0,1.436 0.977,2.478 2.324,2.478 1.104,0 2.294,-0.62 2.294,-1.982 V -7.846 H 3.877 V -3.66 C 3.877,-1.437 2.355,0 0,0" /></g><g
           transform="translate(275.0601,32.3008)"
           id="g6156"><path
             id="path6158"
             style="fill:#4e4e50;fill-opacity:1;fill-rule:nonzero;stroke:none"
             d="m 0,0 h -1.614 v -7.023 c 0,-1.559 0.891,-2.528 2.326,-2.528 h 1.954 v 1.553 H 0.898 C 0.235,-7.998 0,-7.787 0,-7.193 v 3.781 h 2.666 v 1.553 H 0 Z" /></g><g
           transform="translate(286.5913,24.1465)"
           id="g6160"><path
             id="path6162"
             style="fill:#4e4e50;fill-opacity:1;fill-rule:nonzero;stroke:none"
             d="m 0,0 c -1.359,0 -2.309,1.007 -2.309,2.449 0,1.441 0.95,2.447 2.309,2.447 1.359,0 2.309,-1.006 2.309,-2.447 C 2.309,1.007 1.359,0 0,0 m 0,6.449 c -2.234,0 -3.985,-1.757 -3.985,-4 0,-2.244 1.751,-4.002 3.985,-4.002 2.234,0 3.985,1.758 3.985,4.002 0,2.243 -1.751,4 -3.985,4" /></g><g
           transform="translate(298.7437,30.5957)"
           id="g6164"><path
             id="path6166"
             style="fill:#4e4e50;fill-opacity:1;fill-rule:nonzero;stroke:none"
             d="M 0,0 C -0.878,0 -1.676,-0.36 -2.17,-0.972 -2.664,-0.36 -3.463,0 -4.341,0 -5.906,0 -7.132,-1.172 -7.132,-2.668 v -5.178 h 1.614 v 4.869 c 0,0.878 0.463,1.424 1.208,1.424 0.897,0 1.332,-0.537 1.332,-1.64 v -4.653 h 1.615 v 4.653 c 0,1.103 0.435,1.64 1.332,1.64 0.746,0 1.209,-0.546 1.209,-1.424 v -4.869 h 1.613 v 5.178 C 2.791,-1.172 1.565,0 0,0" /></g><g
           transform="translate(306.4927,30.5957)"
           id="g6168"><path
             id="path6170"
             style="fill:#4e4e50;fill-opacity:1;fill-rule:nonzero;stroke:none"
             d="m 0,0 c -2.337,0 -3.97,-1.613 -3.97,-3.924 0,-2.325 1.626,-4.078 3.783,-4.078 1.013,0 1.567,0.35 2.09,0.739 l 0.051,0.038 V -5.19 L 1.73,-5.474 c -0.35,-0.445 -0.943,-0.975 -1.777,-0.975 -1.295,0 -2.308,1.062 -2.308,2.418 0,1.436 0.977,2.478 2.324,2.478 1.104,0 2.294,-0.62 2.294,-1.982 V -7.846 H 3.876 V -3.66 C 3.876,-1.437 2.354,0 0,0" /></g></g></g></g></svg>